<svg width="56" height="56" viewBox="0 0 56 56" fill="none" xmlns="http://www.w3.org/2000/svg">
<circle cx="28" cy="28" r="28" fill="#0098EA"/>
<path fill-rule="evenodd" clip-rule="evenodd" d="M25.8787 18.3787C25.3161 18.9413 25 19.7043 25 20.5C25 21.2957 25.3161 22.0587 25.8787 22.6213C26.4413 23.1839 27.2043 23.5 28 23.5C28.7957 23.5 29.5587 23.1839 30.1213 22.6213C30.6839 22.0587 31 21.2957 31 20.5C31 19.7043 30.6839 18.9413 30.1213 18.3787C29.5587 17.8161 28.7957 17.5 28 17.5C27.2043 17.5 26.4413 17.8161 25.8787 18.3787ZM28 26.5C29.5913 26.5 31.1174 25.8679 32.2426 24.7426C33.3679 23.6174 34 22.0913 34 20.5C34 18.9087 33.3679 17.3826 32.2426 16.2574C31.1174 15.1321 29.5913 14.5 28 14.5C26.4087 14.5 24.8826 15.1321 23.7574 16.2574C22.6321 17.3826 22 18.9087 22 20.5C22 22.0913 22.6321 23.6174 23.7574 24.7426C24.8826 25.8679 26.4087 26.5 28 26.5ZM22 32.5C20.8065 32.5 19.6619 32.9741 18.818 33.818C17.9741 34.6619 17.5 35.8065 17.5 37C17.5 37.3978 17.658 37.7794 17.9393 38.0607C18.2206 38.342 18.6022 38.5 19 38.5H37C37.3978 38.5 37.7794 38.342 38.0607 38.0607C38.342 37.7794 38.5 37.3978 38.5 37C38.5 35.8065 38.0259 34.6619 37.182 33.818C36.3381 32.9741 35.1935 32.5 34 32.5H22ZM16.6967 31.6967C18.1032 30.2902 20.0109 29.5 22 29.5H34C35.9891 29.5 37.8968 30.2902 39.3033 31.6967C40.7098 33.1032 41.5 35.0109 41.5 37C41.5 38.1935 41.0259 39.3381 40.182 40.182C39.3381 41.0259 38.1935 41.5 37 41.5H19C17.8065 41.5 16.6619 41.0259 15.818 40.182C14.9741 39.3381 14.5 38.1935 14.5 37C14.5 35.0109 15.2902 33.1032 16.6967 31.6967Z" fill="white"/>
</svg>
