<svg width="56" height="56" viewBox="0 0 56 56" fill="none" xmlns="http://www.w3.org/2000/svg">
<circle cx="28" cy="28" r="28" fill="#0098EA"/>
<path fill-rule="evenodd" clip-rule="evenodd" d="M15.818 15.818C16.6619 14.9741 17.8065 14.5 19 14.5H34C34.7956 14.5 35.5587 14.8161 36.1213 15.3787C36.6839 15.9413 37 16.7044 37 17.5V20.5C37.7956 20.5 38.5587 20.8161 39.1213 21.3787C39.6839 21.9413 40 22.7044 40 23.5V28C40 28.8284 39.3284 29.5 38.5 29.5C37.6716 29.5 37 28.8284 37 28V23.5H19C18.4841 23.5 17.9773 23.4114 17.5 23.2426V37C17.5 37.3978 17.658 37.7794 17.9393 38.0607C18.2206 38.342 18.6022 38.5 19 38.5H37V34C37 33.1716 37.6716 32.5 38.5 32.5C39.3284 32.5 40 33.1716 40 34V38.5C40 39.2956 39.6839 40.0587 39.1213 40.6213C38.5587 41.1839 37.7956 41.5 37 41.5H19C17.8065 41.5 16.6619 41.0259 15.818 40.182C14.9741 39.3381 14.5 38.1935 14.5 37V19C14.5 17.8065 14.9741 16.6619 15.818 15.818ZM17.5 19C17.5 19.3978 17.658 19.7794 17.9393 20.0607C18.2206 20.342 18.6022 20.5 19 20.5H34L34 17.5L19 17.5C18.6022 17.5 18.2206 17.658 17.9393 17.9393C17.658 18.2206 17.5 18.6022 17.5 19Z" fill="white"/>
<path fill-rule="evenodd" clip-rule="evenodd" d="M34 29.5C33.6022 29.5 33.2206 29.658 32.9393 29.9393C32.658 30.2206 32.5 30.6022 32.5 31C32.5 31.3978 32.658 31.7794 32.9393 32.0607C33.2206 32.342 33.6022 32.5 34 32.5H38.5V29.5H34ZM30.818 27.818C31.6619 26.9741 32.8065 26.5 34 26.5H40C40.8284 26.5 41.5 27.1716 41.5 28V34C41.5 34.8284 40.8284 35.5 40 35.5H34C32.8065 35.5 31.6619 35.0259 30.818 34.182C29.9741 33.3381 29.5 32.1935 29.5 31C29.5 29.8065 29.9741 28.6619 30.818 27.818Z" fill="white"/>
</svg>
