<svg width="56" height="56" viewBox="0 0 56 56" fill="none" xmlns="http://www.w3.org/2000/svg">
<circle cx="28" cy="28" r="28" fill="#0098EA"/>
<path fill-rule="evenodd" clip-rule="evenodd" d="M28 41.9203C35.688 41.9203 41.9203 35.688 41.9203 28C41.9203 20.312 35.688 14.0797 28 14.0797C20.312 14.0797 14.0797 20.312 14.0797 28C14.0797 35.688 20.312 41.9203 28 41.9203ZM28 45C37.3888 45 45 37.3888 45 28C45 18.6112 37.3888 11 28 11C18.6112 11 11 18.6112 11 28C11 37.3888 18.6112 45 28 45Z" fill="white"/>
<path d="M27.4963 37V19H28.7111V37H27.4963ZM30.7185 24.9414C30.6593 24.3742 30.4049 23.9336 29.9556 23.6195C29.5062 23.3055 28.8963 23.1484 28.1259 23.1484C27.6025 23.1484 27.1605 23.2188 26.8 23.3594C26.4395 23.4953 26.163 23.6852 25.9704 23.9289C25.7827 24.1727 25.6889 24.4492 25.6889 24.7586C25.679 25.0164 25.7358 25.2414 25.8593 25.4336C25.9877 25.6258 26.163 25.7922 26.3852 25.9328C26.6074 26.0688 26.8642 26.1883 27.1556 26.2914C27.4469 26.3898 27.758 26.4742 28.0889 26.5445L29.4519 26.8539C30.1136 26.9945 30.721 27.182 31.2741 27.4164C31.8272 27.6508 32.3062 27.9391 32.7111 28.2812C33.116 28.6234 33.4296 29.0266 33.6519 29.4906C33.879 29.9547 33.9951 30.4867 34 31.0867C33.9951 31.968 33.758 32.732 33.2889 33.3789C32.8247 34.0211 32.1531 34.5203 31.2741 34.8766C30.4 35.2281 29.3457 35.4039 28.1111 35.4039C26.8864 35.4039 25.8198 35.2258 24.9111 34.8695C24.0074 34.5133 23.3012 33.9859 22.7926 33.2875C22.2889 32.5844 22.0247 31.7148 22 30.6789H25.1037C25.1383 31.1617 25.284 31.5648 25.5407 31.8883C25.8025 32.207 26.1506 32.4484 26.5852 32.6125C27.0247 32.7719 27.521 32.8516 28.0741 32.8516C28.6173 32.8516 29.0889 32.7766 29.4889 32.6266C29.8938 32.4766 30.2074 32.268 30.4296 32.0008C30.6519 31.7336 30.763 31.4266 30.763 31.0797C30.763 30.7563 30.6617 30.4844 30.4593 30.2641C30.2617 30.0437 29.9704 29.8562 29.5852 29.7016C29.2049 29.5469 28.7383 29.4062 28.1852 29.2797L26.5333 28.8859C25.2543 28.5906 24.2444 28.1289 23.5037 27.5008C22.763 26.8727 22.3951 26.0266 22.4 24.9625C22.3951 24.0906 22.6395 23.3289 23.1333 22.6773C23.6321 22.0258 24.316 21.5172 25.1852 21.1516C26.0543 20.7859 27.042 20.6031 28.1481 20.6031C29.2741 20.6031 30.2568 20.7859 31.0963 21.1516C31.9407 21.5172 32.5975 22.0258 33.0667 22.6773C33.5358 23.3289 33.7778 24.0836 33.7926 24.9414H30.7185Z" fill="white"/>
</svg>
